<?xml version="1.0" encoding="utf-8" ?>
<svg baseProfile="full" height="400px" version="1.1" width="400px" xmlns="http://www.w3.org/2000/svg" xmlns:ev="http://www.w3.org/2001/xml-events" xmlns:xlink="http://www.w3.org/1999/xlink"><defs /><circle cx="200" cy="200" fill="#0D1117" r="200" /><circle cx="200" cy="200" fill="none" r="190" stroke="#9945FF" stroke-dasharray="40,20" stroke-width="8" /><polygon fill="none" opacity="0.8" points="286.6025403784439,150.0 286.6025403784439,250.0 200.0,300.0 113.39745962155612,250.0 113.39745962155614,150.0 199.99999999999997,100.0" stroke="#14F195" stroke-width="6" /><polygon fill="none" opacity="0.6" points="269.2820323027551,160.0 269.2820323027551,240.0 200.0,280.0 130.7179676972449,240.0 130.71796769724492,160.0 199.99999999999997,120.0" stroke="#00F0FF" stroke-width="4" /><polygon fill="#14F195" opacity="0.9" points="234.64101615137756,180.0 234.64101615137756,220.0 200.0,240.0 165.35898384862244,220.0 165.35898384862247,180.0 200.0,160.0" /><g opacity="0.6" stroke="#9945FF" stroke-width="3"><line x1="286.6025403784439" x2="364.5448267190434" y1="150.0" y2="105.00000000000001" /><line x1="286.6025403784439" x2="364.5448267190434" y1="250.0" y2="295.0" /><line x1="200.0" x2="200.0" y1="300.0" y2="390.0" /><line x1="113.39745962155612" x2="35.45517328095664" y1="250.0" y2="295.0" /><line x1="113.39745962155614" x2="35.45517328095667" y1="150.0" y2="104.99999999999999" /><line x1="199.99999999999997" x2="199.99999999999997" y1="100.0" y2="10.0" /></g></svg>