<?xml version="1.0" encoding="utf-8" ?>
<svg baseProfile="full" height="400px" version="1.1" width="400px" xmlns="http://www.w3.org/2000/svg" xmlns:ev="http://www.w3.org/2001/xml-events" xmlns:xlink="http://www.w3.org/1999/xlink"><defs><style type="text/css"><![CDATA[
        @import url('https://fonts.googleapis.com/css2?family=Rubik+Glitch&display=swap');
        .text { font-family: 'Rubik Glitch', monospace; font-size: 200px; font-weight: bold; anchor: middle; }
    ]]></style></defs><rect fill="#0D1117" height="100%" width="100%" x="0" y="0" /><text class="text" fill="#FF003C" opacity="0.7" x="55" y="270">EV</text><text class="text" fill="#00F0FF" opacity="0.7" x="45" y="270">EV</text><text class="text" fill="white" x="50" y="270">EV</text><g opacity="0.3" stroke="black" stroke-width="2"><line x1="0" x2="400" y1="0" y2="0" /><line x1="0" x2="400" y1="8" y2="8" /><line x1="0" x2="400" y1="16" y2="16" /><line x1="0" x2="400" y1="24" y2="24" /><line x1="0" x2="400" y1="32" y2="32" /><line x1="0" x2="400" y1="40" y2="40" /><line x1="0" x2="400" y1="48" y2="48" /><line x1="0" x2="400" y1="56" y2="56" /><line x1="0" x2="400" y1="64" y2="64" /><line x1="0" x2="400" y1="72" y2="72" /><line x1="0" x2="400" y1="80" y2="80" /><line x1="0" x2="400" y1="88" y2="88" /><line x1="0" x2="400" y1="96" y2="96" /><line x1="0" x2="400" y1="104" y2="104" /><line x1="0" x2="400" y1="112" y2="112" /><line x1="0" x2="400" y1="120" y2="120" /><line x1="0" x2="400" y1="128" y2="128" /><line x1="0" x2="400" y1="136" y2="136" /><line x1="0" x2="400" y1="144" y2="144" /><line x1="0" x2="400" y1="152" y2="152" /><line x1="0" x2="400" y1="160" y2="160" /><line x1="0" x2="400" y1="168" y2="168" /><line x1="0" x2="400" y1="176" y2="176" /><line x1="0" x2="400" y1="184" y2="184" /><line x1="0" x2="400" y1="192" y2="192" /><line x1="0" x2="400" y1="200" y2="200" /><line x1="0" x2="400" y1="208" y2="208" /><line x1="0" x2="400" y1="216" y2="216" /><line x1="0" x2="400" y1="224" y2="224" /><line x1="0" x2="400" y1="232" y2="232" /><line x1="0" x2="400" y1="240" y2="240" /><line x1="0" x2="400" y1="248" y2="248" /><line x1="0" x2="400" y1="256" y2="256" /><line x1="0" x2="400" y1="264" y2="264" /><line x1="0" x2="400" y1="272" y2="272" /><line x1="0" x2="400" y1="280" y2="280" /><line x1="0" x2="400" y1="288" y2="288" /><line x1="0" x2="400" y1="296" y2="296" /><line x1="0" x2="400" y1="304" y2="304" /><line x1="0" x2="400" y1="312" y2="312" /><line x1="0" x2="400" y1="320" y2="320" /><line x1="0" x2="400" y1="328" y2="328" /><line x1="0" x2="400" y1="336" y2="336" /><line x1="0" x2="400" y1="344" y2="344" /><line x1="0" x2="400" y1="352" y2="352" /><line x1="0" x2="400" y1="360" y2="360" /><line x1="0" x2="400" y1="368" y2="368" /><line x1="0" x2="400" y1="376" y2="376" /><line x1="0" x2="400" y1="384" y2="384" /><line x1="0" x2="400" y1="392" y2="392" /></g><rect fill="none" height="380" stroke="#14F195" stroke-width="10" width="380" x="10" y="10" /></svg>