<?xml version="1.0" encoding="utf-8" ?>
<svg baseProfile="full" height="50" version="1.1" width="800" xmlns="http://www.w3.org/2000/svg" xmlns:ev="http://www.w3.org/2001/xml-events" xmlns:xlink="http://www.w3.org/1999/xlink"><defs><linearGradient id="waveGrad" x1="0%" x2="100%" y1="0%" y2="0%"><stop offset="0" stop-color="#14F195" /><stop offset="0.5" stop-color="#9945FF" /><stop offset="1" stop-color="#00F0FF" /></linearGradient></defs><path d="M 0.0,25.0 L 8.0,25.14893992169048 L 16.0,25.58315445426425 L 24.0,26.265686751091422 L 32.0,27.13774981781154 L 40.0,28.122748798589143 L 48.0,29.13154574952221 L 56.0,30.068628276559146 L 64.0,30.838784432678622 L 72.0,31.353852323618355 L 80.0,31.539106129109776 L 88.0,31.338861173692973 L 96.0,30.720928014305187 L 104.0,29.679616335469444 L 112.0,28.23707937018204 L 120.0,26.44289300962616 L 128.0,24.371874289917745 L 136.0,22.120254660089277 L 144.0,19.800427430602888 L 152.0,17.534579571691996 L 160.0,15.447589884522463 L 168.0,13.659623982151128 L 176.0,12.27887841849906 L 184.0,11.394920261831308 L 192.0,11.073034727616154 L 200.0,11.34993418326955 L 208.0,12.231100525538775 L 216.0,13.68993459089012 L 224.0,15.668776932369974 L 232.0,18.081750712473813 L 240.0,20.819266620506458 L 248.0,23.753928461303165 L 256.0,26.747492629360455 L 264.0,29.658470353050056 L 272.0,32.34992234048354 L 280.0,34.696983706356924 L 288.0,36.59367353370484 L 296.0,37.958587108253006 L 304.0,38.73913705776654 L 312.0,38.914098123073046 L 320.0,38.494313617951136 L 328.0,37.52153342531735 L 336.0,36.06546673284555 L 344.0,34.219240647651574 L 352.0,32.093551704778584 L 360.0,29.809875209629915 L 368.0,27.49315256029262 L 376.0,25.264405825211803 L 384.0,23.233730168498205 L 392.0,21.494088209411974 L 400.0,20.116277789923338 L 408.0,19.145369237720143 L 416.0,18.5988147933434 L 424.0,18.466327273706607 L 432.0,18.711513872157376 L 440.0,19.27514118587864 L 448.0,20.079805957566112 L 456.0,21.03569894128176 L 464.0,22.0470821589348 L 472.0,23.019056760181893 L 480.0,23.864182382306083 L 488.0,24.50852030294539 L 496.0,24.896711030247108 L 504.0,24.995759840871617 L 512.0,24.79728718396943 L 520.0,24.31809956388137 L 528.0,23.59904428658014 L 536.0,22.702221528840855 L 544.0,21.70673264518297 L 552.0,20.70323783440814 L 560.0,19.78767331594411 L 568.0,19.054533159567335 L 576.0,18.59015038975438 L 584.0,18.466414061005285 L 592.0,18.73533349838081 L 600.0,19.424809367765317 L 608.0,20.535896861209167 L 616.0,22.041753663930386 L 624.0,23.888360266299507 L 632.0,25.99698913910286 L 640.0,28.268289226893252 L 648.0,30.587750005320686 L 656.0,32.832221388738645 L 664.0,34.87709758207318 L 672.0,36.60372884293955 L 680.0,37.90660786389782 L 688.0,38.69988824275889 L 696.0,38.92283068519958 L 704.0,38.54383588026315 L 712.0,37.562807545880176 L 720.0,36.01168977552556 L 728.0,33.953133343192306 L 736.0,31.47735923711831 L 744.0,28.697397390291528 L 752.0,25.74297759088934 L 760.0,22.753431777280912 L 768.0,19.870027273369317 L 776.0,17.228185273603938 L 784.0,14.950045896239688 L 792.0,13.137819955377893 L 800.0,11.868319564582789" fill="none" stroke="url(#waveGrad)" stroke-width="3" /><circle cx="0.0" cy="25.0" fill="#00F0FF" r="2" /><circle cx="160.0" cy="15.447589884522463" fill="#00F0FF" r="2" /><circle cx="320.0" cy="38.494313617951136" fill="#00F0FF" r="2" /><circle cx="480.0" cy="23.864182382306083" fill="#00F0FF" r="2" /><circle cx="640.0" cy="28.268289226893252" fill="#00F0FF" r="2" /></svg>