<?xml version="1.0" encoding="utf-8" ?>
<svg baseProfile="tiny" height="320" version="1.2" width="600" xmlns="http://www.w3.org/2000/svg" xmlns:ev="http://www.w3.org/2001/xml-events" xmlns:xlink="http://www.w3.org/1999/xlink"><defs /><rect fill="#0D1117" height="320" rx="15" ry="15" stroke="#9945FF" stroke-width="2" width="600" x="0" y="0" /><rect fill="#161B22" height="40" rx="15" ry="15" width="596" x="2" y="2" /><rect fill="#161B22" height="15" width="596" x="2" y="30" /><circle cx="25" cy="22" fill="#FF5F56" r="6" /><circle cx="45" cy="22" fill="#FFBD2E" r="6" /><circle cx="65" cy="22" fill="#27C93F" r="6" /><text fill="#8B949E" font-family="monospace" font-size="14" text-anchor="middle" x="300.0" y="27">IDENTITY_LOG.json</text><text fill="#E6EDF3" x="30" y="70">{</text><text fill="#00F0FF" x="40" y="90">"user"</text><text fill="#E6EDF3" x="90" y="90">: </text><text fill="#14F195" x="110" y="90">"EmperorLuxion",</text><text fill="#00F0FF" x="40" y="110">"class"</text><text fill="#E6EDF3" x="100" y="110">: </text><text fill="#14F195" x="120" y="110">"Solana Netrunner",</text><text fill="#00F0FF" x="40" y="130">"faction"</text><text fill="#E6EDF3" x="115" y="130">: </text><text fill="#14F195" x="135" y="130">"CipherLabs",</text><text fill="#00F0FF" x="40" y="150">"status"</text><text fill="#E6EDF3" x="108" y="150">: </text><text fill="#14F195" x="128" y="150">"BUILDING_ON_CHAIN",</text><text fill="#00F0FF" x="40" y="170">"location"</text><text fill="#E6EDF3" x="125" y="170">: </text><text fill="#14F195" x="145" y="170">"ENCRYPTED_NODE_01",</text><text fill="#00F0FF" x="40" y="190">"modules": [</text><text fill="#14F195" x="60" y="210">"Solana Smart Contracts",</text><text fill="#14F195" x="60" y="230">"DeFi Protocols",</text><text fill="#14F195" x="60" y="250">"Red Team Ops"</text><text fill="#E6EDF3" x="30" y="270">  ]</text><text fill="#E6EDF3" x="30" y="290">}</text></svg>