<?xml version="1.0" encoding="utf-8" ?>
<svg baseProfile="full" height="300" version="1.1" width="500" xmlns="http://www.w3.org/2000/svg" xmlns:ev="http://www.w3.org/2001/xml-events" xmlns:xlink="http://www.w3.org/1999/xlink"><defs><style type="text/css"><![CDATA[
        @import url('https://fonts.googleapis.com/css2?family=Fira+Code:wght@400;700&display=swap');
        .text { font-family: 'Fira Code', monospace; fill: #c9d1d9; font-size: 14px; }
        .label { font-family: 'Fira Code', monospace; fill: #8b949e; font-size: 12px; }
        .value { font-family: 'Fira Code', monospace; fill: #14F195; font-size: 12px; font-weight: bold; }
        .header { font-family: 'Fira Code', monospace; fill: #9945FF; font-size: 16px; font-weight: bold; }
        .bar-bg { fill: #21262d; }
        .bar-fill { fill: #00F0FF; }
        .bar-fill-secondary { fill: #14F195; }
    ]]></style></defs><rect fill="#0D1117" height="100%" rx="10" ry="10" stroke="#30363d" stroke-width="1" width="100%" x="0" y="0" /><text class="header" x="20" y="35">OPERATIVE_STATS // SKILL_TREE</text><line stroke="#9945FF" stroke-width="2" x1="20" x2="480" y1="50" y2="50" /><text class="label" style="fill:#00F0FF" x="20" y="80">&gt;&gt; CORE_METRICS</text><text class="text" x="20" y="100">Total Commits:</text><text class="value" style="fill:#14F195" x="150" y="100">369+</text><text class="text" x="20" y="120">PRs Reviewed:</text><text class="value" style="fill:#14F195" x="150" y="120">0</text><text class="text" x="20" y="140">Issues Opened:</text><text class="value" style="fill:#14F195" x="150" y="140">1</text><text class="label" style="fill:#00F0FF" x="250" y="80">&gt;&gt; NEURAL_LANGUAGES</text><text class="label" x="250" y="100">JavaScript</text><text class="label" text-anchor="end" x="450" y="100">43.25%</text><rect class="bar-bg" height="10" rx="3" ry="3" width="200" x="250" y="105" /><rect fill="#f1e05a" height="10" rx="3" ry="3" width="86.5" x="250" y="105" /><text class="label" x="250" y="135">PHP</text><text class="label" text-anchor="end" x="450" y="135">18.19%</text><rect class="bar-bg" height="10" rx="3" ry="3" width="200" x="250" y="140" /><rect fill="#4F5D95" height="10" rx="3" ry="3" width="36.38" x="250" y="140" /><text class="label" x="250" y="170">CSS</text><text class="label" text-anchor="end" x="450" y="170">14.73%</text><rect class="bar-bg" height="10" rx="3" ry="3" width="200" x="250" y="175" /><rect fill="#563d7c" height="10" rx="3" ry="3" width="29.460000000000004" x="250" y="175" /><text class="label" x="250" y="205">Python</text><text class="label" text-anchor="end" x="450" y="205">9.11%</text><rect class="bar-bg" height="10" rx="3" ry="3" width="200" x="250" y="210" /><rect fill="#3572A5" height="10" rx="3" ry="3" width="18.22" x="250" y="210" /><text class="label" x="250" y="240">HTML</text><text class="label" text-anchor="end" x="450" y="240">8.59%</text><rect class="bar-bg" height="10" rx="3" ry="3" width="200" x="250" y="245" /><rect fill="#e34c26" height="10" rx="3" ry="3" width="17.18" x="250" y="245" /><text class="label" style="fill:#14F195; font-size:10px;" x="20" y="285">STATUS: ONLINE</text><text class="label" style="font-size:10px;" text-anchor="end" x="480" y="285">SYNC: MANUAL</text></svg>